Coordinates
version=1
nRows=17
nColumns=40
inDegrees=yes

Units are S.I. units (second, meters, Newtons, ...)
Angles are in degrees.

endheader
time	pelvis_tilt	pelvis_list	pelvis_rotation	pelvis_tx	pelvis_ty	pelvis_tz	hip_flexion_r	hip_adduction_r	hip_rotation_r	knee_angle_r	knee_angle_r_beta	ankle_angle_r	subtalar_angle_r	mtp_angle_r	hip_flexion_l	hip_adduction_l	hip_rotation_l	knee_angle_l	knee_angle_l_beta	ankle_angle_l	subtalar_angle_l	mtp_angle_l	lumbar_extension	lumbar_bending	lumbar_rotation	arm_flex_r	arm_add_r	arm_rot_r	elbow_flex_r	pro_sup_r	wrist_flex_r	wrist_dev_r	arm_flex_l	arm_add_l	arm_rot_l	elbow_flex_l	pro_sup_l	wrist_flex_l	wrist_dev_l
     40.24000000	     -0.57474156	     -4.64684927	      2.64534765	      1.09609118	      0.93349189	      0.48197681	      7.51761399	      2.89510261	    -15.40916252	     17.13618931	     17.13618931	     11.41004003	     -3.19045953	     -4.28779647	     30.03362354	    -13.97486853	      0.79903355	     64.09597493	     64.09597493	      4.11201927	    -17.43257671	      8.33489213	    -10.10201920	      5.34316093	      2.18211447	     21.86494082	    -18.80948901	     -5.73060227	     79.35974062	     45.58575556	      0.00000000	      0.00000000	     -1.47817457	     -8.47432862	    -15.24660525	     25.63781787	     46.04100101	      0.00000000	      0.00000000
     40.25300000	     -0.78867220	     -4.48293100	      3.25738945	      1.09456260	      0.93403063	      0.48240372	      6.96915251	      2.89246166	    -15.80405646	     16.20684557	     16.20684557	     11.34186444	     -3.12366707	     -4.18487172	     31.05681893	    -13.70468257	      0.57539999	     61.30242868	     61.30242868	      4.60009006	    -17.94992799	      8.52928969	    -10.07387693	      5.11026101	      2.00813643	     23.41453326	    -18.86858160	     -5.80632821	     81.05045287	     45.53691145	      0.00000000	      0.00000000	     -2.11500171	     -8.40297841	    -15.28404739	     25.19470438	     46.04792405	      0.00000000	      0.00000000
     40.26600000	     -1.08973473	     -4.52741940	      3.85499169	      1.09293632	      0.93405365	      0.48290694	      6.86629050	      3.02253982	    -16.22799919	     15.93453249	     15.93453249	     11.43884174	     -3.28854932	     -4.18834393	     32.07792701	    -13.69965249	      0.26703917	     58.32859961	     58.32859961	      5.30039944	    -17.88653043	      8.68621447	     -9.84244117	      5.13569762	      2.34407515	     24.75924942	    -19.32021302	     -6.02346535	     81.79991257	     45.52500955	      0.00000000	      0.00000000	     -2.56138729	     -8.30568678	    -15.30634401	     25.05155368	     46.04552040	      0.00000000	      0.00000000
     40.27900000	     -1.23206701	     -4.27958021	      4.49381252	      1.09144476	      0.93462551	      0.48301419	      6.02193485	      2.97609673	    -16.72738392	     14.56804569	     14.56804569	     11.16802299	     -2.93019683	     -4.45034250	     32.58165549	    -13.14027294	     -0.02598736	     54.91918624	     54.91918624	      5.70049706	    -18.36905454	      9.23398972	    -10.09772734	      4.88828574	      2.09626917	     26.09548019	    -19.71016804	     -5.89742392	     85.91361519	     45.39135057	      0.00000000	      0.00000000	     -3.23948594	     -8.14926386	    -15.60732865	     24.81168169	     46.11325281	      0.00000000	      0.00000000
     40.29200000	     -1.43207921	     -4.13055993	      5.07583776	      1.08983035	      0.93479978	      0.48308665	      5.60285113	      2.94557960	    -17.09435595	     13.86795796	     13.86795796	     10.90353460	     -3.07376362	     -5.16892627	     33.02792571	    -12.66662548	     -0.33115707	     51.37325807	     51.37325807	      6.34145639	    -18.44234179	     10.11290635	    -10.18429728	      4.72875251	      2.63254367	     26.82659487	    -20.48240173	     -6.58290694	     88.78083966	     45.32263752	      0.00000000	      0.00000000	     -3.30315747	     -8.00348195	    -16.15994049	     24.51818961	     46.26899288	      0.00000000	      0.00000000
     40.30500000	     -1.66043912	     -4.03860816	      5.67501125	      1.08817192	      0.93478474	      0.48299983	      5.25925034	      2.96143026	    -17.47929883	     13.25394701	     13.25394701	     10.90726787	     -3.13492360	     -5.19970046	     33.37834467	    -12.14096967	     -0.52238609	     47.67569927	     47.67569927	      6.84398899	    -18.40951292	     10.63555568	    -10.19681537	      4.64831273	      2.56374915	     28.34892062	    -20.70929098	     -6.75127021	     90.33490883	     45.28496112	      0.00000000	      0.00000000	     -3.69224070	     -7.94524044	    -16.28470421	     24.27340596	     46.29822223	      0.00000000	      0.00000000
     40.31800000	     -1.89971855	     -3.92922368	      6.26114689	      1.08646034	      0.93461174	      0.48271837	      4.99631255	      2.92454030	    -17.85576880	     12.76646761	     12.76646761	     10.92743659	     -3.22192326	     -5.31212967	     33.59237200	    -11.46997502	     -0.54250502	     43.86240704	     43.86240704	      7.30599691	    -18.25418440	     11.08527624	    -10.22963820	      4.54651566	      2.57796917	     29.72917878	    -21.06271727	     -6.86956463	     91.93618633	     45.24429871	      0.00000000	      0.00000000	     -3.96415708	     -7.87628428	    -16.42297534	     24.15302180	     46.33001383	      0.00000000	      0.00000000
     40.33100000	     -2.14108793	     -3.84266159	      6.82438009	      1.08470154	      0.93426288	      0.48220900	      4.81248649	      2.87523016	    -18.19899889	     12.42414787	     12.42414787	     10.99221285	     -3.36794692	     -5.44523959	     33.70820795	    -10.74543504	     -0.42934196	     40.03329204	     40.03329204	      7.72871686	    -17.89695383	     11.41410196	    -10.25465654	      4.49770473	      2.62093576	     31.02675219	    -21.41396221	     -6.98589833	     93.30220080	     45.21106243	      0.00000000	      0.00000000	     -4.13443899	     -7.84188148	    -16.53294516	     24.08720327	     46.35520677	      0.00000000	      0.00000000
     40.34400000	     -2.37988609	     -3.79241011	      7.37694584	      1.08295737	      0.93377653	      0.48157420	      4.65529880	      2.84379874	    -18.57397630	     12.13265374	     12.13265374	     11.06634925	     -3.48778166	     -5.69792737	     33.73961670	     -9.98852415	     -0.08108749	     36.26465631	     36.26465631	      8.04679281	    -17.32138005	     11.47767417	    -10.28173672	      4.50252784	      2.67217699	     32.22822066	    -21.78071144	     -7.05256612	     94.91395778	     45.16890725	      0.00000000	      0.00000000	     -4.22563953	     -7.79655273	    -16.69215004	     24.06785918	     46.39349799	      0.00000000	      0.00000000
     40.35700000	     -2.66304559	     -3.78283852	      7.86583206	      1.08122700	      0.93308538	      0.48087462	      4.62228668	      2.82858994	    -18.86159592	     11.98629029	     11.98629029	     11.20119011	     -3.70228128	     -5.83284751	     33.77994322	     -9.31197237	      0.27921461	     32.71334672	     32.71334672	      8.50172769	    -16.19126536	     11.60954123	    -10.21695347	      4.49423143	      2.78578528	     33.45885827	    -22.11910623	     -7.18953397	     95.79724846	     45.15154776	      0.00000000	      0.00000000	     -4.22712835	     -7.77573236	    -16.75258885	     24.07510427	     46.40882993	      0.00000000	      0.00000000
     40.37000000	     -2.81913739	     -3.74418625	      8.34715040	      1.07962493	      0.93254361	      0.47998486	      4.46378769	      2.77238677	    -19.15772145	     11.89322901	     11.89322901	     11.35365655	     -3.87425704	     -6.06517799	     33.57468924	     -8.61558290	      0.74619523	     29.32386072	     29.32386072	      8.78229633	    -14.86550885	     11.53926392	    -10.33859084	      4.53636441	      2.80570699	     34.49660337	    -22.30390121	     -7.19654568	     97.00608668	     45.11969929	      0.00000000	      0.00000000	     -4.18353879	     -7.79855041	    -16.86285900	     24.11307807	     46.43709743	      0.00000000	      0.00000000
     40.38300000	     -3.00055783	     -3.73038265	      8.76206819	      1.07816241	      0.93188141	      0.47908680	      4.34614535	      2.73237030	    -19.42340641	     11.84545309	     11.84545309	     11.52592954	     -4.02914503	     -6.28980791	     33.39055005	     -8.02589935	      1.13175747	     26.31684680	     26.31684680	      9.02846332	    -13.20228990	     11.36379876	    -10.38290709	      4.56389807	      2.89601262	     35.46913467	    -22.49514160	     -7.22282028	     97.98879561	     45.09581282	      0.00000000	      0.00000000	     -4.08006267	     -7.80535065	    -16.97739652	     24.20450342	     46.46708646	      0.00000000	      0.00000000
     40.39600000	     -3.24624021	     -3.89750898	      9.17913540	      1.07676641	      0.93096522	      0.47812572	      4.35804225	      2.86289241	    -19.70043891	     11.86413376	     11.86413376	     11.71637870	     -4.21688582	     -6.40631785	     33.42591197	     -7.60555952	      1.68780892	     23.92964199	     23.92964199	      9.26004104	    -11.61607480	     11.43430159	    -10.26790827	      4.78330696	      3.01467346	     36.42054049	    -22.67864584	     -7.32461524	     98.43362296	     45.08991391	      0.00000000	      0.00000000	     -3.89814086	     -7.80936104	    -17.00495320	     24.31121391	     46.47748494	      0.00000000	      0.00000000
     40.40900000	     -3.41715508	     -3.97041835	      9.50855822	      1.07559338	      0.93024314	      0.47715026	      4.27532236	      2.89611931	    -19.92007773	     11.90885805	     11.90885805	     11.92993375	     -4.37035586	     -6.49884357	     33.28155537	     -7.19492043	      2.02170203	     21.92340504	     21.92340504	      9.34512132	    -10.01216274	     11.50141609	    -10.25170397	      4.86940315	      3.11787344	     37.21656720	    -22.70877498	     -7.36336249	     98.81863328	     45.08292972	      0.00000000	      0.00000000	     -3.67747028	     -7.87104659	    -17.02635403	     24.45346786	     46.48696316	      0.00000000	      0.00000000
     40.42200000	     -3.48227888	     -3.85331083	      9.66391758	      1.07485292	      0.92982410	      0.47617634	      4.01226898	      2.73844130	    -19.97336111	     11.95393737	     11.95393737	     12.21946346	     -4.37133280	     -6.57089577	     32.85251518	     -6.78667992	      1.80003620	     20.27807616	     20.27807616	      9.31014798	     -8.34705474	     11.40233806	    -10.32971232	      4.73532000	      3.23943085	     37.81563068	    -22.52086819	     -7.33175750	     99.17087124	     45.07398003	      0.00000000	      0.00000000	     -3.57469797	     -7.93629786	    -17.06722214	     24.62470466	     46.49788941	      0.00000000	      0.00000000
     40.43500000	     -3.59797151	     -3.93185460	      9.85196397	      1.07422822	      0.92915863	      0.47514909	      3.82435403	      2.77813150	    -20.12146202	     11.98640765	     11.98640765	     12.48141861	     -4.34644738	     -6.61395113	     32.67094094	     -6.53649273	      1.70428413	     19.36008102	     19.36008102	      9.11884510	     -7.17308637	     11.28325023	    -10.27958290	      4.81986426	      3.37519587	     38.28709607	    -22.33863405	     -7.33770896	     99.27813818	     45.07343320	      0.00000000	      0.00000000	     -3.34683317	     -8.02899241	    -17.10116087	     24.83342026	     46.50962482	      0.00000000	      0.00000000
     40.44800000	     -3.59807893	     -3.95688922	      9.91159253	      1.07409457	      0.92863157	      0.47418892	      3.45314777	      2.76734421	    -20.33140670	     12.01576754	     12.01576754	     12.93586225	     -3.86379592	     -6.39365472	     32.31663599	     -6.46163459	      0.88274965	     18.91818009	     18.91818009	      8.63676873	     -5.58439657	     10.00921163	    -10.28953155	      4.79582747	      3.39910969	     38.70587845	    -21.75244128	     -7.45797455	     98.85523812	     45.09489223	      0.00000000	      0.00000000	     -3.39740654	     -8.14274343	    -17.25279869	     25.39832112	     46.53873291	      0.00000000	      0.00000000
